# Tiled2Unity generated file. Do not modify by hand.
# Wavefront file for 'Bosque_mesh_0007.obj'

# Vertices (Count = 8)
v -78 -8 0
v -79 -8 0
v -79 -7 0
v -78 -7 0
v -1 -11 0
v -2 -11 0
v -2 -10 0
v -1 -10 0

# Texture cooridinates (Count = 8)
vt 0.5014451 0.7008671
vt 0.5317919 0.7008671
vt 0.5317919 0.7312139
vt 0.5014451 0.7312139
vt 0.5346821 0.7008671
vt 0.5650289 0.7008671
vt 0.5650289 0.7312139
vt 0.5346821 0.7312139

# Normal
vn 0 0 -1

# Mesh description
g Bosque_mesh_0007

# Faces
f 1/1/1 2/2/1 3/3/1 4/4/1
f 5/5/1 6/6/1 7/7/1 8/8/1

