# Tiled2Unity generated file. Do not modify by hand.
# Wavefront file for 'Bosque_mesh_0009.obj'

# Vertices (Count = 12)
v -16 -12 0
v -17 -12 0
v -17 -11 0
v -16 -11 0
v -66 -12 0
v -67 -12 0
v -67 -11 0
v -66 -11 0
v -72 -12 0
v -73 -12 0
v -73 -11 0
v -72 -11 0

# Texture cooridinates (Count = 4)
vt 0.5679191 0.6343931
vt 0.5982659 0.6343931
vt 0.5982659 0.6647398
vt 0.5679191 0.6647398

# Normal
vn 0 0 -1

# Mesh description
g Bosque_mesh_0009

# Faces
f 1/1/1 2/2/1 3/3/1 4/4/1
f 5/1/1 6/2/1 7/3/1 8/4/1
f 9/1/1 10/2/1 11/3/1 12/4/1

