# Tiled2Unity generated file. Do not modify by hand.
# Wavefront file for 'Bosque_mesh_0010.obj'

# Vertices (Count = 40)
v -16 -4 0
v -17 -4 0
v -17 -3 0
v -16 -3 0
v -17 -4 0
v -18 -4 0
v -18 -3 0
v -17 -3 0
v -18 -4 0
v -19 -4 0
v -19 -3 0
v -18 -3 0
v -5 -11 0
v -6 -11 0
v -6 -10 0
v -5 -10 0
v -6 -11 0
v -7 -11 0
v -7 -10 0
v -6 -10 0
v -28 -11 0
v -29 -11 0
v -29 -10 0
v -28 -10 0
v -68 -11 0
v -69 -11 0
v -69 -10 0
v -68 -10 0
v -74 -11 0
v -75 -11 0
v -75 -10 0
v -74 -10 0
v -65 -14 0
v -66 -14 0
v -66 -13 0
v -65 -13 0
v -71 -14 0
v -72 -14 0
v -72 -13 0
v -71 -13 0

# Texture cooridinates (Count = 16)
vt 0.3352601 0.867052
vt 0.3656069 0.867052
vt 0.3656069 0.8973988
vt 0.3352601 0.8973988
vt 0.867052 0.06936419
vt 0.8973988 0.06936419
vt 0.8973988 0.099711
vt 0.867052 0.099711
vt 0.833815 0.1026012
vt 0.8641618 0.1026012
vt 0.8641618 0.132948
vt 0.833815 0.132948
vt 0.833815 0.06936419
vt 0.8641618 0.06936419
vt 0.8641618 0.099711
vt 0.833815 0.099711

# Normal
vn 0 0 -1

# Mesh description
g Bosque_mesh_0010

# Faces
f 1/1/1 2/2/1 3/3/1 4/4/1
f 5/1/1 6/2/1 7/3/1 8/4/1
f 9/1/1 10/2/1 11/3/1 12/4/1
f 13/1/1 14/2/1 15/3/1 16/4/1
f 17/1/1 18/2/1 19/3/1 20/4/1
f 21/1/1 22/2/1 23/3/1 24/4/1
f 25/5/1 26/6/1 27/7/1 28/8/1
f 29/9/1 30/10/1 31/11/1 32/12/1
f 33/13/1 34/14/1 35/15/1 36/16/1
f 37/13/1 38/14/1 39/15/1 40/16/1

