# Tiled2Unity generated file. Do not modify by hand.
# Wavefront file for 'Bosque_mesh_0003.obj'

# Vertices (Count = 12)
v -29 -12 0
v -30 -12 0
v -30 -11 0
v -29 -11 0
v -30 -12 0
v -31 -12 0
v -31 -11 0
v -30 -11 0
v -31 -12 0
v -32 -12 0
v -32 -11 0
v -31 -11 0

# Texture cooridinates (Count = 12)
vt 0.03612717 0.800578
vt 0.06647399 0.800578
vt 0.06647399 0.8309249
vt 0.03612717 0.8309249
vt 0.1026012 0.833815
vt 0.132948 0.833815
vt 0.132948 0.8641618
vt 0.1026012 0.8641618
vt 0.1026012 0.800578
vt 0.132948 0.800578
vt 0.132948 0.8309249
vt 0.1026012 0.8309249

# Normal
vn 0 0 -1

# Mesh description
g Bosque_mesh_0003

# Faces
f 1/1/1 2/2/1 3/3/1 4/4/1
f 5/5/1 6/6/1 7/7/1 8/8/1
f 9/9/1 10/10/1 11/11/1 12/12/1

