# Tiled2Unity generated file. Do not modify by hand.
# Wavefront file for 'Cuidad_mesh_0003.obj'

# Vertices (Count = 40)
v -45 -6 0
v -46 -6 0
v -46 -5 0
v -45 -5 0
v -77 -12 0
v -78 -12 0
v -78 -11 0
v -77 -11 0
v -6 -17 0
v -7 -17 0
v -7 -16 0
v -6 -16 0
v -34 -17 0
v -35 -17 0
v -35 -16 0
v -34 -16 0
v -46 -17 0
v -47 -17 0
v -47 -16 0
v -46 -16 0
v -57 -17 0
v -58 -17 0
v -58 -16 0
v -57 -16 0
v -6 -18 0
v -7 -18 0
v -7 -17 0
v -6 -17 0
v -34 -18 0
v -35 -18 0
v -35 -17 0
v -34 -17 0
v -46 -18 0
v -47 -18 0
v -47 -17 0
v -46 -17 0
v -57 -18 0
v -58 -18 0
v -58 -17 0
v -57 -17 0

# Texture cooridinates (Count = 24)
vt 0.5346821 0.7008671
vt 0.5650289 0.7008671
vt 0.5650289 0.7312139
vt 0.5346821 0.7312139
vt 0.5014451 0.7008671
vt 0.5317919 0.7008671
vt 0.5317919 0.7312139
vt 0.5014451 0.7312139
vt 0.3352601 0.2023121
vt 0.3656069 0.2023121
vt 0.3656069 0.232659
vt 0.3352601 0.232659
vt 0.4349711 0.2023121
vt 0.4653179 0.2023121
vt 0.4653179 0.232659
vt 0.4349711 0.232659
vt 0.3352601 0.1690751
vt 0.3656069 0.1690751
vt 0.3656069 0.1994219
vt 0.3352601 0.1994219
vt 0.4349711 0.1690751
vt 0.4653179 0.1690751
vt 0.4653179 0.1994219
vt 0.4349711 0.1994219

# Normal
vn 0 0 -1

# Mesh description
g Cuidad_mesh_0003

# Faces
f 1/1/1 2/2/1 3/3/1 4/4/1
f 5/5/1 6/6/1 7/7/1 8/8/1
f 9/9/1 10/10/1 11/11/1 12/12/1
f 13/9/1 14/10/1 15/11/1 16/12/1
f 17/9/1 18/10/1 19/11/1 20/12/1
f 21/13/1 22/14/1 23/15/1 24/16/1
f 25/17/1 26/18/1 27/19/1 28/20/1
f 29/17/1 30/18/1 31/19/1 32/20/1
f 33/17/1 34/18/1 35/19/1 36/20/1
f 37/21/1 38/22/1 39/23/1 40/24/1

