# Tiled2Unity generated file. Do not modify by hand.
# Wavefront file for 'Bosque2_mesh_0001.obj'

# Vertices (Count = 352)
v -37 -22 0
v -38 -22 0
v -38 -21 0
v -37 -21 0
v -38 -22 0
v -39 -22 0
v -39 -21 0
v -38 -21 0
v -39 -22 0
v -40 -22 0
v -40 -21 0
v -39 -21 0
v -40 -22 0
v -41 -22 0
v -41 -21 0
v -40 -21 0
v -68 -26 0
v -69 -26 0
v -69 -25 0
v -68 -25 0
v -69 -26 0
v -70 -26 0
v -70 -25 0
v -69 -25 0
v -70 -26 0
v -71 -26 0
v -71 -25 0
v -70 -25 0
v -71 -26 0
v -72 -26 0
v -72 -25 0
v -71 -25 0
v -72 -26 0
v -73 -26 0
v -73 -25 0
v -72 -25 0
v -73 -26 0
v -74 -26 0
v -74 -25 0
v -73 -25 0
v -74 -26 0
v -75 -26 0
v -75 -25 0
v -74 -25 0
v -75 -26 0
v -76 -26 0
v -76 -25 0
v -75 -25 0
v -76 -26 0
v -77 -26 0
v -77 -25 0
v -76 -25 0
v -77 -26 0
v -78 -26 0
v -78 -25 0
v -77 -25 0
v -78 -26 0
v -79 -26 0
v -79 -25 0
v -78 -25 0
v -68 -27 0
v -69 -27 0
v -69 -26 0
v -68 -26 0
v -69 -27 0
v -70 -27 0
v -70 -26 0
v -69 -26 0
v -70 -27 0
v -71 -27 0
v -71 -26 0
v -70 -26 0
v -71 -27 0
v -72 -27 0
v -72 -26 0
v -71 -26 0
v -72 -27 0
v -73 -27 0
v -73 -26 0
v -72 -26 0
v -73 -27 0
v -74 -27 0
v -74 -26 0
v -73 -26 0
v -74 -27 0
v -75 -27 0
v -75 -26 0
v -74 -26 0
v -75 -27 0
v -76 -27 0
v -76 -26 0
v -75 -26 0
v -76 -27 0
v -77 -27 0
v -77 -26 0
v -76 -26 0
v -77 -27 0
v -78 -27 0
v -78 -26 0
v -77 -26 0
v -78 -27 0
v -79 -27 0
v -79 -26 0
v -78 -26 0
v -21 -28 0
v -22 -28 0
v -22 -27 0
v -21 -27 0
v -22 -28 0
v -23 -28 0
v -23 -27 0
v -22 -27 0
v -23 -28 0
v -24 -28 0
v -24 -27 0
v -23 -27 0
v -28 -28 0
v -29 -28 0
v -29 -27 0
v -28 -27 0
v -29 -28 0
v -30 -28 0
v -30 -27 0
v -29 -27 0
v -30 -28 0
v -31 -28 0
v -31 -27 0
v -30 -27 0
v -68 -28 0
v -69 -28 0
v -69 -27 0
v -68 -27 0
v -69 -28 0
v -70 -28 0
v -70 -27 0
v -69 -27 0
v -70 -28 0
v -71 -28 0
v -71 -27 0
v -70 -27 0
v -71 -28 0
v -72 -28 0
v -72 -27 0
v -71 -27 0
v -72 -28 0
v -73 -28 0
v -73 -27 0
v -72 -27 0
v -73 -28 0
v -74 -28 0
v -74 -27 0
v -73 -27 0
v -74 -28 0
v -75 -28 0
v -75 -27 0
v -74 -27 0
v -75 -28 0
v -76 -28 0
v -76 -27 0
v -75 -27 0
v -76 -28 0
v -77 -28 0
v -77 -27 0
v -76 -27 0
v -77 -28 0
v -78 -28 0
v -78 -27 0
v -77 -27 0
v -78 -28 0
v -79 -28 0
v -79 -27 0
v -78 -27 0
v -21 -29 0
v -22 -29 0
v -22 -28 0
v -21 -28 0
v -22 -29 0
v -23 -29 0
v -23 -28 0
v -22 -28 0
v -23 -29 0
v -24 -29 0
v -24 -28 0
v -23 -28 0
v -24 -29 0
v -25 -29 0
v -25 -28 0
v -24 -28 0
v -25 -29 0
v -26 -29 0
v -26 -28 0
v -25 -28 0
v -26 -29 0
v -27 -29 0
v -27 -28 0
v -26 -28 0
v -27 -29 0
v -28 -29 0
v -28 -28 0
v -27 -28 0
v -28 -29 0
v -29 -29 0
v -29 -28 0
v -28 -28 0
v -29 -29 0
v -30 -29 0
v -30 -28 0
v -29 -28 0
v -30 -29 0
v -31 -29 0
v -31 -28 0
v -30 -28 0
v -31 -29 0
v -32 -29 0
v -32 -28 0
v -31 -28 0
v -32 -29 0
v -33 -29 0
v -33 -28 0
v -32 -28 0
v -33 -29 0
v -34 -29 0
v -34 -28 0
v -33 -28 0
v -34 -29 0
v -35 -29 0
v -35 -28 0
v -34 -28 0
v -35 -29 0
v -36 -29 0
v -36 -28 0
v -35 -28 0
v -21 -30 0
v -22 -30 0
v -22 -29 0
v -21 -29 0
v -22 -30 0
v -23 -30 0
v -23 -29 0
v -22 -29 0
v -23 -30 0
v -24 -30 0
v -24 -29 0
v -23 -29 0
v -24 -30 0
v -25 -30 0
v -25 -29 0
v -24 -29 0
v -25 -30 0
v -26 -30 0
v -26 -29 0
v -25 -29 0
v -26 -30 0
v -27 -30 0
v -27 -29 0
v -26 -29 0
v -27 -30 0
v -28 -30 0
v -28 -29 0
v -27 -29 0
v -28 -30 0
v -29 -30 0
v -29 -29 0
v -28 -29 0
v -29 -30 0
v -30 -30 0
v -30 -29 0
v -29 -29 0
v -30 -30 0
v -31 -30 0
v -31 -29 0
v -30 -29 0
v -31 -30 0
v -32 -30 0
v -32 -29 0
v -31 -29 0
v -32 -30 0
v -33 -30 0
v -33 -29 0
v -32 -29 0
v -33 -30 0
v -34 -30 0
v -34 -29 0
v -33 -29 0
v -34 -30 0
v -35 -30 0
v -35 -29 0
v -34 -29 0
v -35 -30 0
v -36 -30 0
v -36 -29 0
v -35 -29 0
v -21 -31 0
v -22 -31 0
v -22 -30 0
v -21 -30 0
v -22 -31 0
v -23 -31 0
v -23 -30 0
v -22 -30 0
v -23 -31 0
v -24 -31 0
v -24 -30 0
v -23 -30 0
v -24 -31 0
v -25 -31 0
v -25 -30 0
v -24 -30 0
v -25 -31 0
v -26 -31 0
v -26 -30 0
v -25 -30 0
v -26 -31 0
v -27 -31 0
v -27 -30 0
v -26 -30 0
v -27 -31 0
v -28 -31 0
v -28 -30 0
v -27 -30 0
v -28 -31 0
v -29 -31 0
v -29 -30 0
v -28 -30 0
v -29 -31 0
v -30 -31 0
v -30 -30 0
v -29 -30 0
v -30 -31 0
v -31 -31 0
v -31 -30 0
v -30 -30 0
v -31 -31 0
v -32 -31 0
v -32 -30 0
v -31 -30 0
v -32 -31 0
v -33 -31 0
v -33 -30 0
v -32 -30 0
v -33 -31 0
v -34 -31 0
v -34 -30 0
v -33 -30 0
v -34 -31 0
v -35 -31 0
v -35 -30 0
v -34 -30 0
v -35 -31 0
v -36 -31 0
v -36 -30 0
v -35 -30 0

# Texture cooridinates (Count = 8)
vt 0.1026012 0.833815
vt 0.132948 0.833815
vt 0.132948 0.8641618
vt 0.1026012 0.8641618
vt 0.5346821 0.3352601
vt 0.5650289 0.3352601
vt 0.5650289 0.365607
vt 0.5346821 0.365607

# Normal
vn 0 0 -1

# Mesh description
g Bosque2_mesh_0001

# Faces
f 1/1/1 2/2/1 3/3/1 4/4/1
f 5/1/1 6/2/1 7/3/1 8/4/1
f 9/1/1 10/2/1 11/3/1 12/4/1
f 13/1/1 14/2/1 15/3/1 16/4/1
f 17/5/1 18/6/1 19/7/1 20/8/1
f 21/5/1 22/6/1 23/7/1 24/8/1
f 25/5/1 26/6/1 27/7/1 28/8/1
f 29/5/1 30/6/1 31/7/1 32/8/1
f 33/5/1 34/6/1 35/7/1 36/8/1
f 37/5/1 38/6/1 39/7/1 40/8/1
f 41/5/1 42/6/1 43/7/1 44/8/1
f 45/5/1 46/6/1 47/7/1 48/8/1
f 49/5/1 50/6/1 51/7/1 52/8/1
f 53/5/1 54/6/1 55/7/1 56/8/1
f 57/5/1 58/6/1 59/7/1 60/8/1
f 61/5/1 62/6/1 63/7/1 64/8/1
f 65/5/1 66/6/1 67/7/1 68/8/1
f 69/5/1 70/6/1 71/7/1 72/8/1
f 73/5/1 74/6/1 75/7/1 76/8/1
f 77/5/1 78/6/1 79/7/1 80/8/1
f 81/5/1 82/6/1 83/7/1 84/8/1
f 85/5/1 86/6/1 87/7/1 88/8/1
f 89/5/1 90/6/1 91/7/1 92/8/1
f 93/5/1 94/6/1 95/7/1 96/8/1
f 97/5/1 98/6/1 99/7/1 100/8/1
f 101/5/1 102/6/1 103/7/1 104/8/1
f 105/5/1 106/6/1 107/7/1 108/8/1
f 109/5/1 110/6/1 111/7/1 112/8/1
f 113/5/1 114/6/1 115/7/1 116/8/1
f 117/5/1 118/6/1 119/7/1 120/8/1
f 121/5/1 122/6/1 123/7/1 124/8/1
f 125/5/1 126/6/1 127/7/1 128/8/1
f 129/5/1 130/6/1 131/7/1 132/8/1
f 133/5/1 134/6/1 135/7/1 136/8/1
f 137/5/1 138/6/1 139/7/1 140/8/1
f 141/5/1 142/6/1 143/7/1 144/8/1
f 145/5/1 146/6/1 147/7/1 148/8/1
f 149/5/1 150/6/1 151/7/1 152/8/1
f 153/5/1 154/6/1 155/7/1 156/8/1
f 157/5/1 158/6/1 159/7/1 160/8/1
f 161/5/1 162/6/1 163/7/1 164/8/1
f 165/5/1 166/6/1 167/7/1 168/8/1
f 169/5/1 170/6/1 171/7/1 172/8/1
f 173/5/1 174/6/1 175/7/1 176/8/1
f 177/5/1 178/6/1 179/7/1 180/8/1
f 181/5/1 182/6/1 183/7/1 184/8/1
f 185/5/1 186/6/1 187/7/1 188/8/1
f 189/5/1 190/6/1 191/7/1 192/8/1
f 193/5/1 194/6/1 195/7/1 196/8/1
f 197/5/1 198/6/1 199/7/1 200/8/1
f 201/5/1 202/6/1 203/7/1 204/8/1
f 205/5/1 206/6/1 207/7/1 208/8/1
f 209/5/1 210/6/1 211/7/1 212/8/1
f 213/5/1 214/6/1 215/7/1 216/8/1
f 217/5/1 218/6/1 219/7/1 220/8/1
f 221/5/1 222/6/1 223/7/1 224/8/1
f 225/5/1 226/6/1 227/7/1 228/8/1
f 229/5/1 230/6/1 231/7/1 232/8/1
f 233/5/1 234/6/1 235/7/1 236/8/1
f 237/5/1 238/6/1 239/7/1 240/8/1
f 241/5/1 242/6/1 243/7/1 244/8/1
f 245/5/1 246/6/1 247/7/1 248/8/1
f 249/5/1 250/6/1 251/7/1 252/8/1
f 253/5/1 254/6/1 255/7/1 256/8/1
f 257/5/1 258/6/1 259/7/1 260/8/1
f 261/5/1 262/6/1 263/7/1 264/8/1
f 265/5/1 266/6/1 267/7/1 268/8/1
f 269/5/1 270/6/1 271/7/1 272/8/1
f 273/5/1 274/6/1 275/7/1 276/8/1
f 277/5/1 278/6/1 279/7/1 280/8/1
f 281/5/1 282/6/1 283/7/1 284/8/1
f 285/5/1 286/6/1 287/7/1 288/8/1
f 289/5/1 290/6/1 291/7/1 292/8/1
f 293/5/1 294/6/1 295/7/1 296/8/1
f 297/5/1 298/6/1 299/7/1 300/8/1
f 301/5/1 302/6/1 303/7/1 304/8/1
f 305/5/1 306/6/1 307/7/1 308/8/1
f 309/5/1 310/6/1 311/7/1 312/8/1
f 313/5/1 314/6/1 315/7/1 316/8/1
f 317/5/1 318/6/1 319/7/1 320/8/1
f 321/5/1 322/6/1 323/7/1 324/8/1
f 325/5/1 326/6/1 327/7/1 328/8/1
f 329/5/1 330/6/1 331/7/1 332/8/1
f 333/5/1 334/6/1 335/7/1 336/8/1
f 337/5/1 338/6/1 339/7/1 340/8/1
f 341/5/1 342/6/1 343/7/1 344/8/1
f 345/5/1 346/6/1 347/7/1 348/8/1
f 349/5/1 350/6/1 351/7/1 352/8/1

