# Tiled2Unity generated file. Do not modify by hand.
# Wavefront file for 'Bosque2_mesh_0007.obj'

# Vertices (Count = 192)
v -72 -8 0
v -73 -8 0
v -73 -7 0
v -72 -7 0
v -71 -9 0
v -72 -9 0
v -72 -8 0
v -71 -8 0
v -72 -9 0
v -73 -9 0
v -73 -8 0
v -72 -8 0
v -73 -9 0
v -74 -9 0
v -74 -8 0
v -73 -8 0
v -71 -10 0
v -72 -10 0
v -72 -9 0
v -71 -9 0
v -72 -10 0
v -73 -10 0
v -73 -9 0
v -72 -9 0
v -73 -10 0
v -74 -10 0
v -74 -9 0
v -73 -9 0
v -20 -11 0
v -21 -11 0
v -21 -10 0
v -20 -10 0
v -70 -11 0
v -71 -11 0
v -71 -10 0
v -70 -10 0
v -71 -11 0
v -72 -11 0
v -72 -10 0
v -71 -10 0
v -72 -11 0
v -73 -11 0
v -73 -10 0
v -72 -10 0
v -73 -11 0
v -74 -11 0
v -74 -10 0
v -73 -10 0
v -74 -11 0
v -75 -11 0
v -75 -10 0
v -74 -10 0
v -19 -12 0
v -20 -12 0
v -20 -11 0
v -19 -11 0
v -20 -12 0
v -21 -12 0
v -21 -11 0
v -20 -11 0
v -21 -12 0
v -22 -12 0
v -22 -11 0
v -21 -11 0
v -70 -12 0
v -71 -12 0
v -71 -11 0
v -70 -11 0
v -71 -12 0
v -72 -12 0
v -72 -11 0
v -71 -11 0
v -72 -12 0
v -73 -12 0
v -73 -11 0
v -72 -11 0
v -73 -12 0
v -74 -12 0
v -74 -11 0
v -73 -11 0
v -74 -12 0
v -75 -12 0
v -75 -11 0
v -74 -11 0
v -19 -13 0
v -20 -13 0
v -20 -12 0
v -19 -12 0
v -20 -13 0
v -21 -13 0
v -21 -12 0
v -20 -12 0
v -21 -13 0
v -22 -13 0
v -22 -12 0
v -21 -12 0
v -72 -13 0
v -73 -13 0
v -73 -12 0
v -72 -12 0
v -20 -14 0
v -21 -14 0
v -21 -13 0
v -20 -13 0
v -72 -14 0
v -73 -14 0
v -73 -13 0
v -72 -13 0
v -85 -14 0
v -86 -14 0
v -86 -13 0
v -85 -13 0
v -86 -14 0
v -87 -14 0
v -87 -13 0
v -86 -13 0
v -20 -15 0
v -21 -15 0
v -21 -14 0
v -20 -14 0
v -72 -15 0
v -73 -15 0
v -73 -14 0
v -72 -14 0
v -3 -16 0
v -4 -16 0
v -4 -15 0
v -3 -15 0
v -4 -16 0
v -5 -16 0
v -5 -15 0
v -4 -15 0
v -5 -16 0
v -6 -16 0
v -6 -15 0
v -5 -15 0
v -6 -16 0
v -7 -16 0
v -7 -15 0
v -6 -15 0
v -7 -16 0
v -8 -16 0
v -8 -15 0
v -7 -15 0
v -20 -16 0
v -21 -16 0
v -21 -15 0
v -20 -15 0
v -42 -16 0
v -43 -16 0
v -43 -15 0
v -42 -15 0
v -41 -17 0
v -42 -17 0
v -42 -16 0
v -41 -16 0
v -42 -17 0
v -43 -17 0
v -43 -16 0
v -42 -16 0
v -43 -17 0
v -44 -17 0
v -44 -16 0
v -43 -16 0
v -41 -18 0
v -42 -18 0
v -42 -17 0
v -41 -17 0
v -42 -18 0
v -43 -18 0
v -43 -17 0
v -42 -17 0
v -43 -18 0
v -44 -18 0
v -44 -17 0
v -43 -17 0
v -42 -19 0
v -43 -19 0
v -43 -18 0
v -42 -18 0
v -41 -20 0
v -42 -20 0
v -42 -19 0
v -41 -19 0
v -42 -20 0
v -43 -20 0
v -43 -19 0
v -42 -19 0
v -42 -21 0
v -43 -21 0
v -43 -20 0
v -42 -20 0

# Texture cooridinates (Count = 40)
vt 0.002890173 0.2687861
vt 0.033237 0.2687861
vt 0.033237 0.2991329
vt 0.002890173 0.2991329
vt 0.2687861 0.2355492
vt 0.2991329 0.2355492
vt 0.2991329 0.265896
vt 0.2687861 0.265896
vt 0.3020231 0.2355492
vt 0.33237 0.2355492
vt 0.33237 0.265896
vt 0.3020231 0.265896
vt 0.3352601 0.2355492
vt 0.3656069 0.2355492
vt 0.3656069 0.265896
vt 0.3352601 0.265896
vt 0.1026012 0.2687861
vt 0.132948 0.2687861
vt 0.132948 0.2991329
vt 0.1026012 0.2991329
vt 0.3352601 0.867052
vt 0.3656069 0.867052
vt 0.3656069 0.8973988
vt 0.3352601 0.8973988
vt 0.3684971 0.867052
vt 0.3988439 0.867052
vt 0.3988439 0.8973988
vt 0.3684971 0.8973988
vt 0.03612717 0.2687861
vt 0.06647399 0.2687861
vt 0.06647399 0.2991329
vt 0.03612717 0.2991329
vt 0.2355491 0.2355492
vt 0.265896 0.2355492
vt 0.265896 0.265896
vt 0.2355491 0.265896
vt 0.1358382 0.2355492
vt 0.166185 0.2355492
vt 0.166185 0.265896
vt 0.1358382 0.265896

# Normal
vn 0 0 -1

# Mesh description
g Bosque2_mesh_0007

# Faces
f 1/1/1 2/2/1 3/3/1 4/4/1
f 5/5/1 6/6/1 7/7/1 8/8/1
f 9/9/1 10/10/1 11/11/1 12/12/1
f 13/13/1 14/14/1 15/15/1 16/16/1
f 17/5/1 18/6/1 19/7/1 20/8/1
f 21/9/1 22/10/1 23/11/1 24/12/1
f 25/13/1 26/14/1 27/15/1 28/16/1
f 29/1/1 30/2/1 31/3/1 32/4/1
f 33/5/1 34/6/1 35/7/1 36/8/1
f 37/9/1 38/10/1 39/11/1 40/12/1
f 41/9/1 42/10/1 43/11/1 44/12/1
f 45/9/1 46/10/1 47/11/1 48/12/1
f 49/13/1 50/14/1 51/15/1 52/16/1
f 53/5/1 54/6/1 55/7/1 56/8/1
f 57/9/1 58/10/1 59/11/1 60/12/1
f 61/13/1 62/14/1 63/15/1 64/16/1
f 65/5/1 66/6/1 67/7/1 68/8/1
f 69/9/1 70/10/1 71/11/1 72/12/1
f 73/9/1 74/10/1 75/11/1 76/12/1
f 77/9/1 78/10/1 79/11/1 80/12/1
f 81/13/1 82/14/1 83/15/1 84/16/1
f 85/5/1 86/6/1 87/7/1 88/8/1
f 89/9/1 90/10/1 91/11/1 92/12/1
f 93/13/1 94/14/1 95/15/1 96/16/1
f 97/17/1 98/18/1 99/19/1 100/20/1
f 101/17/1 102/18/1 103/19/1 104/20/1
f 105/17/1 106/18/1 107/19/1 108/20/1
f 109/21/1 110/22/1 111/23/1 112/24/1
f 113/25/1 114/26/1 115/27/1 116/28/1
f 117/17/1 118/18/1 119/19/1 120/20/1
f 121/29/1 122/30/1 123/31/1 124/32/1
f 125/21/1 126/22/1 127/23/1 128/24/1
f 129/21/1 130/22/1 131/23/1 132/24/1
f 133/21/1 134/22/1 135/23/1 136/24/1
f 137/21/1 138/22/1 139/23/1 140/24/1
f 141/21/1 142/22/1 143/23/1 144/24/1
f 145/29/1 146/30/1 147/31/1 148/32/1
f 149/1/1 150/2/1 151/3/1 152/4/1
f 153/5/1 154/6/1 155/7/1 156/8/1
f 157/9/1 158/10/1 159/11/1 160/12/1
f 161/13/1 162/14/1 163/15/1 164/16/1
f 165/5/1 166/6/1 167/7/1 168/8/1
f 169/9/1 170/10/1 171/11/1 172/12/1
f 173/13/1 174/14/1 175/15/1 176/16/1
f 177/17/1 178/18/1 179/19/1 180/20/1
f 181/33/1 182/34/1 183/35/1 184/36/1
f 185/37/1 186/38/1 187/39/1 188/40/1
f 189/29/1 190/30/1 191/31/1 192/32/1

